<?xml version="1.0" encoding="UTF-8" standalone="no"?>
<!-- Created with Inkscape (http://www.inkscape.org/) -->

<svg
   xmlns:dc="http://purl.org/dc/elements/1.1/"
   xmlns:cc="http://creativecommons.org/ns#"
   xmlns:rdf="http://www.w3.org/1999/02/22-rdf-syntax-ns#"
   xmlns:svg="http://www.w3.org/2000/svg"
   xmlns="http://www.w3.org/2000/svg"
   xmlns:xlink="http://www.w3.org/1999/xlink"
   version="1.1"
   width="512"
   height="384"
   id="svg2">
  <defs
     id="defs4" />
  <metadata
     id="metadata7">
    <rdf:RDF>
      <cc:Work
         rdf:about="">
        <dc:format>image/svg+xml</dc:format>
        <dc:type
           rdf:resource="http://purl.org/dc/dcmitype/StillImage" />
        <dc:title></dc:title>
      </cc:Work>
    </rdf:RDF>
  </metadata>
  <rect
     width="520"
     height="392"
     x="0"
     y="0"
     id="background"
     style="fill:#0032c8;fill-opacity:1;fill-rule:nonzero;stroke:none" />
  <g
     transform="translate(0,-668.36218)"
     id="crane">
    <path
       d="m 424,852.36218 c 13.33333,5.33333 26.66667,10.66667 40,16 -9.63393,8.82795 -22.94231,-1.33267 -34.28322,0.38141 -13.44769,1.28737 -26.33907,5.87611 -39.55787,8.59621 -17.88727,3.68075 -35.41381,10.02716 -53.64952,11.49054 -18.81275,1.50969 -39.13403,-3.83667 -56.50939,3.53184 -10.42418,4.42067 3.11465,18.03076 3.3536,27.63438 0.13148,5.28437 -10.1627,4.56646 -14.45436,7.916 -2.68044,2.09202 -1.35943,7.45512 -1.78194,11.042 -1.46374,12.42651 5.12572,27.99414 -3.1173,37.40762 -5.46626,6.24244 -3.32769,-13.72244 -4,-20.6402 -0.7532,-7.75009 1.3142,-15.68491 0,-23.3598 -0.22504,-1.3142 -2.66667,0 -4,0 l 0,-176 c 4.61497,6.19296 8.61896,13.03305 8,21.3876 -1.14797,15.495 -9.16286,34.06429 0,46.6124 9.16193,12.54683 28.88927,12.63071 45.13203,11.93411 34.05386,-1.46045 68.33798,1.66097 102.24652,-2.67196 17.54048,-1.75405 35.08097,-3.5081 52.62145,-5.26215 -1.93392,8.38234 -14.13857,4.17596 -21.13537,6.34838 -4.95488,0.55054 -9.90975,1.10108 -14.86463,1.65162 13.33333,0 26.66667,0 40,0 -2.12201,8.02154 -13.83604,2.58198 -20.6402,4 -6.45326,0 -12.90653,0 -19.3598,0 16,1.33333 32,2.66667 48,4 -2.30365,7.86561 -13.80275,1.41367 -20.5689,2.28593 -9.1437,-0.76198 -18.2874,-1.52395 -27.4311,-2.28593 14.66667,2.66667 29.33333,5.33333 44,8 -2.50527,7.64855 -13.64414,0.0595 -20.30727,0.30777 -7.89757,-1.43593 -15.79515,-2.87185 -23.69273,-4.30777 13.33333,4 26.66667,8 40,12 -2.11559,7.73095 -13.16133,-1.16396 -19.3097,-1.26628 -8.2301,-2.24458 -16.4602,-4.48915 -24.6903,-6.73372"
       id="path3785"
       style="fill:#ffffff;fill-opacity:1;stroke:none" />
    <use
       transform="matrix(-1,0,0,1,512,0)"
       id="use3787"
       x="0"
       y="0"
       width="512"
       height="384"
       xlink:href="#path3785" />
  </g>
</svg>
